<svg xmlns="http://www.w3.org/2000/svg" viewBox="0 0 1200 1400">
  <defs>
    <linearGradient id="wood" x1="0" x2="1" y1="0" y2="1">
      <stop offset="0" stop-color="#9d7d5c"/>
      <stop offset=".55" stop-color="#76593f"/>
      <stop offset="1" stop-color="#4e3a2a"/>
    </linearGradient>
    <filter id="shadow" x="-30%" y="-30%" width="160%" height="160%"><feDropShadow dx="0" dy="26" stdDeviation="26" flood-color="#20150e" flood-opacity=".28"/></filter>
    <pattern id="grain" width="120" height="40" patternUnits="userSpaceOnUse">
      <path d="M0 16C35 4 79 31 120 12" fill="none" stroke="#d9bb94" stroke-opacity=".13" stroke-width="3"/>
      <path d="M0 31C35 20 86 46 120 28" fill="none" stroke="#2f2118" stroke-opacity=".13" stroke-width="2"/>
    </pattern>
  </defs>
  <rect width="1200" height="1400" fill="url(#wood)"/>
  <rect width="1200" height="1400" fill="url(#grain)"/>
  <g transform="translate(90 100) rotate(-6 280 260)" filter="url(#shadow)">
    <rect width="570" height="470" rx="12" fill="#e9e0ce"/>
    <path d="M40 95h490M40 150h430M40 205h460M40 260h390" stroke="#6c7a70" stroke-opacity=".6" stroke-width="8"/>
    <path d="M90 390c55-88 115-99 170-27 48-84 116-90 184-18" fill="none" stroke="#ba6842" stroke-width="12"/>
    <circle cx="442" cy="88" r="36" fill="#c56538" opacity=".85"/>
  </g>
  <g transform="translate(690 140) rotate(7 150 320)" filter="url(#shadow)">
    <rect width="300" height="640" rx="44" fill="#171713"/>
    <rect x="15" y="18" width="270" height="604" rx="34" fill="#d7c8b3"/>
    <rect x="96" y="33" width="108" height="20" rx="10" fill="#171713"/>
    <circle cx="150" cy="320" r="82" fill="#b8934e" opacity=".7"/>
    <path d="M90 320h120M150 260v120" stroke="#fff8eb" stroke-width="8"/>
  </g>
  <g transform="translate(650 890)" filter="url(#shadow)">
    <circle cx="215" cy="215" r="215" fill="#efe7d7"/>
    <circle cx="215" cy="215" r="160" fill="#2f2119"/>
    <circle cx="215" cy="215" r="122" fill="#754b31"/>
    <path d="M145 205c33-50 112-49 143 0-28 19-54 30-72 31-22-1-47-11-71-31Z" fill="#d6b894" opacity=".72"/>
    <path d="M423 188c94-1 100 112 18 134" fill="none" stroke="#efe7d7" stroke-width="38" stroke-linecap="round"/>
  </g>
  <g transform="translate(120 700) rotate(4 280 180)" filter="url(#shadow)">
    <rect width="565" height="360" rx="8" fill="#f7eedc"/>
    <path d="M0 72h565M430 0v360" stroke="#746f63" stroke-dasharray="12 12" stroke-width="3" opacity=".75"/>
    <text x="45" y="55" font-family="serif" font-size="18" letter-spacing="5" fill="#40392f">TAIWAN EXHIBITION</text>
    <text x="45" y="155" font-family="serif" font-size="58" font-weight="700" fill="#171713">ART DAY</text>
    <text x="45" y="214" font-family="sans-serif" font-size="22" fill="#746f63">CITY · MUSEUM · WEEKEND</text>
    <circle cx="493" cy="92" r="38" fill="#c56538"/>
    <text x="467" y="101" font-family="serif" font-size="22" font-weight="700" fill="#fff">展覽</text>
    <path d="M465 260h58M465 278h58M465 296h58" stroke="#171713" stroke-width="7"/>
  </g>
  <g transform="translate(70 1160) rotate(-9 220 70)" filter="url(#shadow)">
    <rect width="440" height="140" rx="10" fill="#66745e"/>
    <text x="34" y="61" font-family="sans-serif" font-size="17" letter-spacing="4" fill="#fff">EXHIBITION JOURNAL</text>
    <text x="34" y="99" font-family="serif" font-size="27" font-weight="700" fill="#fff">TAKE A DAY FOR ART.</text>
  </g>
</svg>
